<svg width="24" height="24" viewBox="0 0 24 24" xmlns="http://www.w3.org/2000/svg">  <path d="m11.931261 8.1750088 3.362701 1.9413282v3.882529l-3.362701 1.941262-3.3627003-1.941262v-3.882529zm3.785275-6.8155706 3.362701 1.9412995v3.8825496l-3.362701 1.9412783-3.362701-1.9412783V3.3007377Zm0 13.5159968 3.362701 1.941263v3.882529l-3.362701 1.941335-3.362701-1.941335v-3.882529ZM4.3627012 8.1750088l3.3627014 1.9413282v3.882529l-3.3627014 1.941262L1 13.998866v-3.882529Zm3.7841385-6.8155706 3.3627023 1.9412995v3.8825496L8.1468397 9.1245656 4.7841172 7.1832873V3.3007377Zm0 13.5159968 3.3627023 1.941263v3.882529l-3.3627023 1.941335-3.3627225-1.941335v-3.882529ZM19.637299 8.1750088 23 10.116337v3.882529l-3.362701 1.941262-3.362702-1.941262v-3.882529z"/></svg>