<svg width="32" height="32" viewBox="0 0 32 32" fill="none" xmlns="http://www.w3.org/2000/svg">
<path d="M5 7.53718C5 5.98279 5 5.2056 5.28719 4.66519C5.56217 4.14777 6.01605 3.77568 6.57735 3.60752C7.16358 3.43189 7.92568 3.58431 9.44988 3.88915L10.8769 4.17454C12.4011 4.47938 13.1632 4.6318 13.7494 5.04193C14.3107 5.43461 14.7646 5.98825 15.0395 6.61566C15.3267 7.27095 15.3267 8.04814 15.3267 9.60253V24.4612C15.3267 26.0155 15.3267 26.7927 15.0395 27.3331C14.7646 27.8506 14.3107 28.2227 13.7494 28.3908C13.1632 28.5665 12.4011 28.414 10.8769 28.1092L9.44988 27.8238C7.92568 27.519 7.16358 27.3665 6.57735 26.9564C6.01605 26.5637 5.56217 26.0101 5.28719 25.3827C5 24.7274 5 23.9502 5 22.3958V7.53718Z" fill="#000091"/>
<path fill-rule="evenodd" clip-rule="evenodd" d="M17.8927 6.54535C17.6055 7.20063 17.6055 7.97783 17.6055 9.53221V16.7318C17.6055 18.2861 17.6055 19.0633 17.8927 19.6037C18.1676 20.1212 18.6215 20.4933 19.1828 20.6614C19.7691 20.8371 20.5312 20.6846 22.0554 20.3798L23.4823 20.0944C25.0065 19.7896 25.7686 19.6371 26.3549 19.227C26.9162 18.8343 27.37 18.2807 27.645 17.6533C27.9322 16.998 27.9322 16.2208 27.9322 14.6664V7.46687C27.9322 5.91248 27.9322 5.13529 27.645 4.59488C27.37 4.07746 26.9162 3.70537 26.3549 3.53721C25.7686 3.36157 25.0065 3.51399 23.4823 3.81883L22.0554 4.10423C20.5312 4.40907 19.7691 4.56149 19.1828 4.97162C18.6215 5.3643 18.1676 5.91794 17.8927 6.54535ZM21.91 17.5349C22.0541 17.6778 22.2378 17.727 22.461 17.6823C22.7147 17.6316 22.9065 17.4939 23.0363 17.2692L25.846 12.3891C25.8927 12.3094 25.9272 12.2332 25.9495 12.1604C25.9719 12.0856 25.983 12.0161 25.983 11.9519C25.983 11.7739 25.9221 11.6392 25.8004 11.5476C25.6806 11.4536 25.5325 11.4242 25.3559 11.4596C25.2342 11.4839 25.1307 11.5294 25.0454 11.5962C24.9622 11.6604 24.8831 11.759 24.808 11.892L22.4488 16.1419L21.2677 14.9346C21.1399 14.8091 20.9795 14.7656 20.7867 14.8041C20.6061 14.8403 20.457 14.9291 20.3393 15.0706C20.2215 15.2121 20.1627 15.3718 20.1627 15.5498C20.1627 15.6305 20.1749 15.7047 20.1992 15.7722C20.2256 15.8373 20.2733 15.9013 20.3423 15.964L21.91 17.5349Z" fill="#FBC63A"/>
</svg>
