<svg width="55" height="46" viewBox="0 0 55 46" fill="none" xmlns="http://www.w3.org/2000/svg">
<path d="M34.9922 14.1542L19.9982 5.44141L5.00424 14.2366C4.91153 14.2896 4.83441 14.3663 4.78068 14.4588C4.72695 14.5514 4.69851 14.6566 4.69824 14.7637V31.7797C4.7041 31.8855 4.7349 31.9883 4.7881 32.0798C4.8413 32.1713 4.91538 32.2487 5.00424 32.3058L19.9962 40.9404L34.9902 32.1994C35.0791 32.1423 35.1532 32.0648 35.2064 31.9734C35.2596 31.8819 35.2904 31.7791 35.2962 31.6733V14.6844C35.2969 14.5769 35.2691 14.4712 35.2157 14.378C35.1623 14.2849 35.0852 14.2076 34.9922 14.1542Z" fill="#000091"/>
<path d="M14.6407 14.6563L9.61169 23.3189L5.05469 14.1071L10.4447 10.9816L14.9337 14.1542L14.6407 14.6563ZM35.2967 31.7044V14.6783C35.2967 14.5714 35.2683 14.4664 35.2146 14.3742C35.1608 14.2819 35.0835 14.2056 34.9907 14.1532L19.9977 5.44141" fill="#FCC63A"/>
<path d="M4.70024 31.7044L20.0002 5.44141V40.9454L5.00424 32.3058C4.91532 32.2488 4.8412 32.1714 4.78799 32.0799C4.73478 31.9884 4.70402 31.8855 4.69824 31.7797V14.7647L4.70024 31.7044ZM29.3692 10.8862L34.8272 14.0538L30.3382 23.2406L24.9512 13.9675L29.3692 10.8852V10.8862Z" fill="#0063CB"/>
<path d="M39.606 11.35L20.416 0.285769C20.2868 0.221139 20.1444 0.1875 20 0.1875C19.8556 0.1875 19.7132 0.221139 19.584 0.285769L0.394 11.35C0.278544 11.4273 0.182752 11.5307 0.114324 11.6519C0.0458949 11.773 0.00673776 11.9087 0 12.0478V34.1361C0.00580737 34.2762 0.0445312 34.4129 0.113008 34.535C0.181484 34.6572 0.27777 34.7613 0.394 34.8389L19.583 45.9032C19.7122 45.9679 19.8546 46.0016 19.999 46.0016C20.1434 46.0016 20.2858 45.9679 20.415 45.9032L39.606 34.8389C39.7222 34.7612 39.8184 34.6571 39.8869 34.5349C39.9554 34.4128 39.9941 34.2762 40 34.1361V12.0478C39.9933 11.9087 39.9541 11.773 39.8857 11.6519C39.8172 11.5307 39.7215 11.4273 39.606 11.35ZM10.789 29.1773H10.868C10.826 29.1773 10.789 29.1843 10.789 29.2275C10.789 29.3279 10.94 29.2275 10.989 29.3279C10.7514 29.3344 10.5257 29.4339 10.36 29.605C10.36 29.6552 10.46 29.6552 10.511 29.6552C10.436 29.7556 10.285 29.7054 10.234 29.8078C10.261 29.835 10.2961 29.8526 10.334 29.858C10.284 29.858 10.234 29.858 10.234 29.9082V30.0608C10.108 30.0608 10.058 30.1612 9.957 30.2114C10.157 30.364 10.284 30.2114 10.485 30.2114C9.957 30.4122 9.529 30.6924 9.001 30.844C8.901 30.844 9.001 30.9946 8.901 30.9946C9.052 31.095 9.128 30.9444 9.278 30.9444C8.624 31.3239 7.945 31.6472 7.241 32.0819C7.18675 32.1361 7.15164 32.2066 7.141 32.2827H6.941C6.841 32.3329 6.891 32.4594 6.79 32.5608C7.016 32.7114 7.29 32.36 7.444 32.5608C7.494 32.5608 7.344 32.611 7.244 32.611C7.194 32.611 7.194 32.7114 7.144 32.7114H6.99C6.89 32.7867 6.79 32.8379 6.79 32.9885C6.74665 32.9806 6.70193 32.986 6.66163 33.0039C6.62134 33.0218 6.58732 33.0514 6.564 33.0889C7.63803 33.0848 8.70271 32.8882 9.708 32.5086C10.4878 32.1097 11.1939 31.58 11.796 30.9424C11.8231 30.9695 11.8406 31.0047 11.846 31.0428C11.699 31.4815 11.416 31.862 11.04 32.1271C10.763 32.2797 10.562 32.5066 10.34 32.608C10.1917 32.6913 10.0487 32.7839 9.912 32.8851C9.28 33.0829 8.631 33.2215 7.973 33.2988L7.668 33.343C7.443 33.3761 7.219 33.4122 6.997 33.4514L5.004 32.3088C4.93104 32.2628 4.86798 32.2025 4.81853 32.1317C4.76907 32.0608 4.73421 31.9807 4.716 31.8962C4.74934 31.8783 4.78083 31.8571 4.81 31.8329C4.77898 31.7999 4.74009 31.7754 4.697 31.7616V31.109C5.74494 30.922 6.7655 30.6043 7.735 30.1632C6.81772 29.5232 5.78681 29.0655 4.698 28.8149V27.2938C5.25307 27.3851 5.80083 27.5167 6.337 27.6873C6.74976 27.8396 7.14583 28.0341 7.519 28.2677C7.666 28.4082 7.826 28.5357 7.997 28.6462C8.11768 28.7153 8.25253 28.7558 8.3912 28.7645C8.52987 28.7732 8.66869 28.7499 8.797 28.6964H9.127C9.84341 28.5775 10.5135 28.2632 11.064 27.7877C11.064 27.8379 11.114 27.8379 11.164 27.8379C11.0857 28.2382 10.941 28.6224 10.736 28.9745C10.739 29.0247 10.688 29.1271 10.789 29.1773ZM13.606 32.7616C13.857 32.6612 14.006 32.4845 14.235 32.3841C14.185 32.4343 14.185 32.5347 14.135 32.5849C13.9474 32.7027 13.7707 32.8371 13.607 32.9865C13.0413 33.4871 12.5116 34.0273 12.022 34.603C11.77 34.9042 11.494 35.1833 11.222 35.4614C11.126 35.5518 11.022 35.6341 10.912 35.7074L8.385 34.2516C8.745 34.2817 9.106 34.2646 9.461 34.1984C9.755 34.1151 10.041 34.0056 10.316 33.8701V33.9705C11.016 33.6924 11.548 33.0608 12.253 32.8339C12.278 32.8339 12.379 32.9343 12.479 32.8841C12.6601 32.6588 12.8904 32.4782 13.152 32.3563C13.4136 32.2345 13.6997 32.1746 13.988 32.1813C13.988 32.2315 13.988 32.2817 14.038 32.2817H14.063C13.912 32.4082 13.736 32.5327 13.563 32.6602C13.506 32.7124 13.556 32.7616 13.606 32.7616ZM4.698 26.5739V26.3871C5.21615 26.2511 5.75054 26.1876 6.286 26.1984C6.44434 26.1731 6.60566 26.1731 6.764 26.1984C6.05843 26.1977 5.35854 26.3249 4.698 26.5739ZM35.298 31.6823C35.2922 31.7881 35.2615 31.891 35.2083 31.9825C35.155 32.0739 35.0809 32.1514 34.992 32.2084L24.913 38.0819C23.7558 37.7497 22.6181 37.3529 21.505 36.8932C21.3437 36.5408 21.256 36.159 21.2474 35.7714C21.2388 35.3837 21.3095 34.9983 21.455 34.6391C21.535 34.3299 21.653 34.0317 21.807 33.7526C21.832 33.7275 21.857 33.7024 21.857 33.6763C21.8636 33.6763 21.87 33.6736 21.8747 33.6689C21.8794 33.6642 21.882 33.6579 21.882 33.6512C21.9931 33.4559 22.1191 33.2696 22.259 33.094L22.274 33.0789L22.294 33.0578L22.309 33.0428C22.309 33.0177 22.334 32.9926 22.359 32.9665C22.384 32.9153 22.434 32.8902 22.459 32.84C22.635 32.6532 22.829 32.4845 23.038 32.3379C23.251 32.2606 23.469 32.2014 23.692 32.1602C24.503 32.2205 25.309 32.3309 26.107 32.4896C26.205 32.5044 26.2992 32.5385 26.384 32.59C26.685 32.6492 26.996 32.6311 27.289 32.5398C27.4799 32.5047 27.6587 32.4211 27.8084 32.2971C27.9581 32.173 28.0736 32.0125 28.144 31.8309C28.2322 31.6689 28.2825 31.489 28.2912 31.3046C28.2998 31.1202 28.2666 30.9362 28.194 30.7667C28.016 30.4906 28.181 30.3289 28.375 30.1743L28.443 30.1201C28.529 30.0588 28.607 29.9855 28.674 29.9032C28.8 29.6502 28.574 29.5016 28.523 29.2707C28.473 29.1703 28.297 29.2205 28.196 29.0699C28.548 28.9183 29.051 28.6381 28.825 28.2094C28.674 27.9815 28.448 27.5769 28.725 27.349C29.077 27.1482 29.58 27.1974 29.731 26.8671C29.7803 26.6758 29.7793 26.475 29.7281 26.2842C29.6769 26.0934 29.5773 25.9192 29.439 25.7787L29.364 25.6703C29.2894 25.5661 29.219 25.4589 29.153 25.349C28.9941 25.0841 28.8177 24.8302 28.625 24.589C28.4049 24.276 28.2274 23.935 28.097 23.5749C27.946 23.1964 28.147 22.8671 28.147 22.4876C28.1618 21.7565 28.0512 21.0283 27.82 20.3349C27.694 19.9805 27.644 19.601 27.493 19.2707C27.474 19.059 27.3956 18.8571 27.267 18.6884C27.2422 18.6372 27.2294 18.5811 27.2294 18.5242C27.2294 18.4673 27.2422 18.4112 27.267 18.36C27.472 18.2145 27.666 18.0538 27.846 17.8781C27.9015 17.7555 27.9118 17.617 27.8752 17.4874C27.8386 17.3578 27.7574 17.2454 27.646 17.1703C27.319 17.0187 27.346 17.4996 27.118 17.601H26.967C26.917 17.4745 27.017 17.4233 27.118 17.3229C27.118 17.2727 27.118 17.1713 27.068 17.1713C26.868 17.1713 26.691 17.1201 26.64 17.0197C26.158 16.4167 25.5113 15.9679 24.779 15.7285C24.967 15.7868 25.161 15.8199 25.358 15.8289C25.696 15.9002 26.048 15.8651 26.364 15.7285C26.591 15.6522 26.641 15.2466 26.741 15.0197C26.7613 14.9094 26.7583 14.796 26.7323 14.6869C26.7063 14.5777 26.6578 14.4753 26.59 14.3862C26.3629 14.0547 26.0495 13.7921 25.684 13.6271C25.4528 13.5186 25.2263 13.4003 25.005 13.2727C24.928 13.2184 24.8434 13.1757 24.754 13.1462C21.789 11.6552 15.685 12.9454 15.22 13.1462H15.211C14.7825 13.271 14.3648 13.4305 13.962 13.6231C13.4074 13.8298 12.9066 14.1599 12.497 14.5885C12.0875 15.017 11.7798 15.5331 11.597 16.098C11.026 16.4746 10.5658 16.9977 10.264 17.6131C9.836 18.4163 9.208 19.1281 9.308 20.0368C9.408 20.8199 9.585 21.5267 9.736 22.3349C9.779 22.608 9.846 22.8771 9.936 23.1382C10.036 23.4153 9.936 23.7697 10.087 23.9966C10.162 24.1472 10.112 24.3249 10.314 24.4263V24.6271C10.364 24.6773 10.364 24.7275 10.465 24.7275V24.9283C10.9 25.353 11.272 25.8379 11.572 26.3681C11.672 26.6452 11.094 26.5187 10.872 26.4183C10.4565 26.1467 10.0762 25.8243 9.74 25.4584C9.71254 25.4854 9.69463 25.5207 9.689 25.5588C9.889 25.9122 10.595 26.342 10.217 26.5689C10.017 26.6693 9.789 26.4173 9.588 26.6191C9.538 26.6954 9.588 26.7968 9.588 26.8972C9.311 26.6964 9.01 26.7968 8.733 26.6964C8.533 26.6462 8.481 26.2677 8.255 26.2677C7.6585 26.1216 7.05372 26.0119 6.444 25.9394C5.86789 25.8523 5.28726 25.7986 4.705 25.7787V14.7677C4.70545 14.6607 4.73397 14.5558 4.78769 14.4634C4.84141 14.371 4.91844 14.2945 5.011 14.2416L19.998 5.4454L34.992 14.1572C35.0846 14.2101 35.1617 14.2866 35.2154 14.379C35.2692 14.4714 35.2977 14.5764 35.298 14.6833V31.6823ZM27.344 23.3882C27.3138 23.4353 27.2719 23.4739 27.2225 23.5001C27.1731 23.5263 27.1178 23.5393 27.062 23.5378C26.9618 23.6225 26.8676 23.7141 26.78 23.8118C26.88 23.8118 26.78 23.9614 26.88 23.9614C26.675 24.1853 26.957 24.6582 26.675 24.7576C26.305 24.857 25.917 24.857 25.548 24.7576C25.6029 24.7458 25.6589 24.7404 25.715 24.7416H25.8C25.8627 24.7492 25.9263 24.741 25.9851 24.7179C26.0439 24.6948 26.0961 24.6574 26.137 24.609V24.4082C26.137 24.358 26.086 24.358 26.037 24.358C26.0108 24.3863 25.9753 24.4041 25.937 24.4082C25.9345 24.3631 25.9185 24.3197 25.891 24.2838C25.8635 24.248 25.8259 24.2214 25.783 24.2074C25.6501 24.2253 25.5148 24.2096 25.3894 24.1618C25.264 24.1139 25.1525 24.0354 25.065 23.9333C25.2006 23.8679 25.3542 23.8502 25.501 23.8831C25.629 23.8831 25.578 23.6592 25.732 23.5598H25.886C26.193 23.1863 26.757 23.0869 26.86 22.7135C26.86 22.6131 26.578 22.6131 26.373 22.5629C26.0989 22.5292 25.821 22.5462 25.553 22.6131C25.193 22.6633 24.841 22.7556 24.502 22.8882C24.782 22.6813 25.094 22.5217 25.425 22.4153C25.657 22.3249 25.898 22.2576 26.143 22.2145L26.275 22.1884L26.408 22.1612C26.5894 22.1068 26.7826 22.1068 26.964 22.1612C27.195 22.2616 27.579 22.2617 27.63 22.4102C27.73 22.6843 27.476 22.9574 27.195 23.1572C27.138 23.2376 27.344 23.2928 27.344 23.3882Z" fill="white"/>
<path d="M52.56 0H27C25.8954 0 25 0.899026 25 2.00803V11.3474C25 12.4564 25.8954 13.3554 27 13.3554H52.56C53.6646 13.3554 54.56 12.4564 54.56 11.3474V2.00803C54.56 0.899026 53.6646 0 52.56 0Z" fill="#FCC63A"/>
<path d="M27.5625 11.2122V2.32462H30.4835C31.4535 2.32462 32.2155 2.56157 32.7725 3.03547C33.3375 3.50936 33.6195 4.15695 33.6195 4.97823C33.6195 5.79149 33.3375 6.43405 32.7725 6.90795C32.2155 7.38184 31.4525 7.61879 30.4835 7.61879H29.3585V11.2122H27.5625ZM30.5595 3.86076H29.3585V6.08265H30.5585C30.9385 6.08265 31.2335 5.98526 31.4445 5.79149C31.6645 5.5957 31.7735 5.31659 31.7735 4.95213C31.7735 4.61378 31.6635 4.34771 31.4445 4.15293C31.2345 3.95815 30.9385 3.86076 30.5595 3.86076ZM35.2305 11.2122V2.32462H37.9375C38.9075 2.32462 39.6735 2.56157 40.2385 3.03547C40.8035 3.50936 41.0855 4.15695 41.0855 4.97823C41.0855 5.51036 40.9595 5.97723 40.7065 6.37381C40.4625 6.76438 40.1165 7.06458 39.6695 7.27642L42.4515 11.2122H40.3015L37.9495 7.61879H37.0265V11.2122H35.2305ZM38.0385 3.86076H37.0265V6.08265H38.0385C38.4185 6.08265 38.7125 5.98526 38.9235 5.79149C39.1335 5.5957 39.2395 5.31659 39.2395 4.95213C39.2395 4.61378 39.1345 4.34771 38.9235 4.15293C38.7135 3.95815 38.4175 3.86076 38.0385 3.86076ZM47.5495 2.07061C48.2395 2.07061 48.8725 2.19711 49.4455 2.45213C50.0275 2.70514 50.5255 3.0445 50.9375 3.46719C51.3515 3.88988 51.6715 4.38988 51.8995 4.96518C52.1265 5.53245 52.2405 6.13385 52.2405 6.76839C52.2405 7.40293 52.1265 8.00835 51.8995 8.58365C51.68 9.13806 51.353 9.64315 50.9375 10.0696C50.5245 10.4923 50.0275 10.8306 49.4455 11.0847C48.8471 11.3439 48.2012 11.4739 47.5495 11.4662C46.9184 11.4726 46.2923 11.3524 45.7081 11.1126C45.1239 10.8728 44.5933 10.5181 44.1475 10.0696C43.7323 9.64308 43.4056 9.13799 43.1865 8.58365C42.9583 8.00599 42.8422 7.38983 42.8445 6.76839C42.8445 6.13285 42.9585 5.53245 43.1865 4.96518C43.4135 4.38988 43.7345 3.89089 44.1475 3.46719C44.5605 3.0435 45.0575 2.70514 45.6395 2.45113C46.243 2.19286 46.8935 2.06328 47.5495 2.07061ZM47.5495 9.77742C47.9406 9.78176 48.3283 9.70378 48.6875 9.54851C49.0415 9.38787 49.3405 9.17702 49.5855 8.91397C49.8375 8.64289 50.0355 8.32562 50.1795 7.96116C50.3243 7.58042 50.3972 7.17593 50.3945 6.76839C50.3981 6.36469 50.3251 5.96399 50.1795 5.58767C50.0473 5.23296 49.8449 4.90883 49.5845 4.63486C49.3349 4.36045 49.0289 4.14392 48.6875 4.00032C48.3304 3.83712 47.9419 3.75485 47.5495 3.75936C47.1365 3.75936 46.7525 3.83968 46.3985 4.00032C46.0544 4.14584 45.7445 4.36197 45.4885 4.63486C45.235 4.91173 45.0374 5.2353 44.9065 5.58767C44.7609 5.96399 44.6879 6.36469 44.6915 6.76839C44.6915 7.19108 44.7625 7.58867 44.9065 7.96116C45.0495 8.32562 45.2435 8.64289 45.4875 8.91397C45.7405 9.17602 46.0445 9.38787 46.3975 9.54851C46.7525 9.70112 47.1365 9.77742 47.5495 9.77742Z" fill="#161616"/>
</svg>
