<svg width="220" height="96" viewBox="0 0 220 96" fill="none" xmlns="http://www.w3.org/2000/svg">
<path d="M28.8673 40.3338C31.3469 40.3338 33.2758 39.1512 34.457 37.2586V33.8282L29.1033 34.7352C26.6232 35.169 25.5999 36.2332 25.5999 37.7317C25.5999 39.2696 26.8203 40.3338 28.8673 40.3338ZM21.5059 37.8895C21.5059 34.8929 23.8286 32.7242 28.0403 32.0146L34.457 30.9501V29.9251C34.457 27.4808 32.646 25.9823 30.0873 25.9823C27.9221 25.9823 26.2297 26.9678 25.0883 28.5848L22.0572 26.2583C23.8286 23.8926 26.6628 22.3945 30.2055 22.3945C35.5588 22.3945 38.5113 25.5489 38.5113 29.9251V43.0542H34.457V40.8069C33.0398 42.5418 30.5597 43.6454 28.1193 43.6454C24.1827 43.6454 21.5059 41.3981 21.5059 37.8895Z" fill="#2B3E88"/>
<path d="M40.7158 23.1831H44.7701V25.115C46.2657 23.5378 48.2342 22.3945 51.0686 22.3945C55.4378 22.3945 58.7837 25.3514 58.7837 31.1077V43.0542H54.6897V31.2654C54.6897 28.1115 52.9577 26.219 50.1238 26.219C47.4077 26.219 45.7938 27.9141 44.7701 29.6489V43.0542H40.7158V23.1831Z" fill="#2B3E88"/>
<path d="M37.9163 62.6395L41.1824 65.1435C39.3278 67.647 36.3439 69.2626 32.5944 69.2626C25.7803 69.2626 21.5059 64.2144 21.5059 58.2778C21.5059 52.3412 25.7803 47.293 32.5944 47.293C36.3037 47.293 39.3278 48.9086 41.1824 51.4126L37.9163 53.9162C36.7876 52.3412 34.9329 51.2107 32.5944 51.2107C28.6829 51.2107 25.8606 54.2798 25.8606 58.2778C25.8606 62.3165 28.6829 65.3454 32.6345 65.3454C34.9329 65.3454 36.7876 64.2144 37.9163 62.6395Z" fill="#2B3E88"/>
<path d="M47.591 52.2713H43.1865V48.605H47.591V43.6367H51.685V48.605H58.784V52.2713H51.685V61.5764C51.685 64.2571 53.1022 65.1249 55.3062 65.1249C56.6448 65.1249 58.0757 64.9671 58.784 64.691V68.2791C57.8393 68.6732 56.2117 68.8702 54.6768 68.8702C50.0315 68.8702 47.591 66.4259 47.591 61.5764V52.2713Z" fill="#2B3E88"/>
<path d="M61.5368 19.6671V22.3964H65.4814V18.5675C65.4814 17.1856 64.2547 15.7768 62.8782 15.6875H58.7832V19.4979L61.5368 19.6671Z" fill="#2B3E88"/>
<path d="M65.1579 75.6225V59.1211H69.1023V76.7221C69.1023 78.104 67.8757 79.5128 66.4992 79.6021H48.6543V75.7917L65.1579 75.6225Z" fill="#62AA9C"/>
<path d="M18.7521 72.0926V69.3633H14.8076V73.1921C14.8076 74.574 16.0342 75.9829 17.4108 76.0721H21.5057V72.2618L18.7521 72.0926Z" fill="#5C6ABC"/>
<path d="M18.7521 19.6671V22.3964H14.8076V18.5675C14.8076 17.1856 16.0342 15.7768 17.4108 15.6875H21.5057V19.4979L18.7521 19.6671Z" fill="#298472"/>
<path d="M79.2851 35.9266C80.2942 35.9266 81.17 35.0304 81.17 34.0007C81.17 32.9709 80.2942 32.0938 79.2851 32.0938C78.238 32.0938 77.3623 32.9709 77.3623 34.0007C77.3623 35.0304 78.238 35.9266 79.2851 35.9266ZM77.743 46.5862H80.7701V36.9754H77.743V46.5862ZM83.056 46.5862H86.0831V40.5985C86.2735 40.2744 86.7495 39.4353 87.8156 39.4353C88.7866 39.4353 89.3006 40.1027 89.3006 41.0753V46.5862H92.3468V40.9418C92.3468 38.0242 90.6714 36.594 88.6343 36.594C87.511 36.594 86.7114 36.9754 86.0831 37.5094V36.9754H83.056V46.5862ZM99.3202 44.1263C98.0255 44.1263 97.1117 43.211 97.1117 41.7808C97.1117 40.3697 98.0255 39.4353 99.263 39.4353C100.101 39.4353 100.691 39.8167 101.034 40.3125L103.394 38.52C102.5 37.3377 101.072 36.594 99.3011 36.594C95.9123 36.594 93.9704 38.9777 93.9704 41.7808C93.9704 44.584 95.9123 46.9676 99.3011 46.9676C101.072 46.9676 102.5 46.2239 103.394 45.0416L101.034 43.2491C100.691 43.7449 100.082 44.1263 99.3202 44.1263ZM110.761 42.4101C110.761 43.4207 110.247 44.1263 109.162 44.1263C108.039 44.1263 107.544 43.4207 107.544 42.4101V36.9754H104.498V42.2385C104.498 45.1179 106.154 46.9676 109.143 46.9676C112.094 46.9676 113.807 45.1179 113.807 42.2385V36.9754H110.761V42.4101ZM126.424 41.7808C126.424 38.9777 124.653 36.594 121.588 36.594C120.407 36.594 119.57 36.9182 118.922 37.5094V32.2844H115.895V46.5862H118.922V46.0523C119.57 46.6434 120.407 46.9676 121.588 46.9676C124.653 46.9676 126.424 44.584 126.424 41.7808ZM121.15 39.4353C122.483 39.4353 123.301 40.3697 123.301 41.7808C123.301 43.1919 122.483 44.1263 121.15 44.1263C120.217 44.1263 119.494 43.7259 118.922 43.0012V40.5604C119.437 39.8548 120.179 39.4353 121.15 39.4353ZM130.904 46.8722C131.913 46.8722 132.998 46.4527 133.531 45.8616V46.5862H136.539V40.5223C136.539 38.4247 135.131 36.594 132.084 36.594C130.295 36.594 128.829 37.3187 127.953 38.5391L130.162 40.2172C130.599 39.5879 131.19 39.2065 131.989 39.2065C132.884 39.2065 133.512 39.7595 133.531 40.4841L130.828 40.9418C128.734 41.285 127.61 42.4101 127.61 43.8784C127.61 45.7472 128.962 46.8722 130.904 46.8722ZM130.599 43.7259C130.599 43.2873 130.866 43.0012 131.647 42.8677L133.531 42.5436V43.497C133.151 44.0691 132.541 44.5268 131.57 44.5268C130.98 44.5268 130.599 44.2216 130.599 43.7259ZM139.403 42.8487C139.403 45.2132 140.488 46.7769 143.096 46.7769C143.991 46.7769 144.581 46.6625 145.095 46.4337V43.8212C144.81 43.9356 144.353 44.031 143.648 44.031C142.849 44.031 142.449 43.6114 142.449 42.8487V39.6832H145.076V36.9754H142.449V34.5727H139.403V36.9754H137.613V39.6832H139.403V42.8487ZM155.696 45.0416L153.564 43.3445C153.126 43.8975 152.327 44.2598 151.413 44.2598C150.27 44.2598 149.433 43.9165 149.147 42.6199H155.354C155.449 42.2766 155.544 41.6664 155.544 41.0181C155.544 38.4056 153.754 36.594 151.032 36.594C147.776 36.594 146.044 38.9967 146.044 41.7808C146.044 44.584 147.91 46.9676 151.432 46.9676C153.278 46.9676 154.782 46.243 155.696 45.0416ZM150.956 39.0349C152.079 39.0349 152.574 39.8358 152.612 40.4841H149.166C149.395 39.5116 149.985 39.0349 150.956 39.0349ZM163.393 42.4101C163.393 43.4207 162.879 44.1263 161.794 44.1263C160.671 44.1263 160.176 43.4207 160.176 42.4101V36.9754H157.13V42.2385C157.13 45.1179 158.786 46.9676 161.775 46.9676C164.726 46.9676 166.439 45.1179 166.439 42.2385V36.9754H163.393V42.4101ZM168.526 46.5862H171.553V40.7511C171.744 40.4269 172.467 39.7786 173.571 39.7786C174.066 39.7786 174.428 39.8358 174.752 39.912V36.9182C174.523 36.8419 174.219 36.7847 173.876 36.7847C172.886 36.7847 172.143 37.2042 171.553 37.7572V36.9754H168.526V46.5862ZM77.1719 59.7904C77.1719 62.5936 78.9615 64.9772 82.0076 64.9772C83.188 64.9772 84.0067 64.653 84.654 64.081V64.5958H87.7001V50.2941H84.654V55.4999C84.0067 54.9278 83.188 54.6037 82.0076 54.6037C78.9615 54.6037 77.1719 56.9873 77.1719 59.7904ZM80.3132 59.7904C80.3132 58.3793 81.1128 57.445 82.4455 57.445C83.3784 57.445 84.1019 57.8263 84.654 58.551V61.0299C84.1019 61.7546 83.3784 62.1359 82.4455 62.1359C81.1128 62.1359 80.3132 61.2016 80.3132 59.7904ZM99.0722 63.0512L96.9399 61.3541C96.502 61.9071 95.7024 62.2694 94.7886 62.2694C93.6463 62.2694 92.8086 61.9262 92.523 60.6295H98.7295C98.8247 60.2862 98.9199 59.676 98.9199 59.0277C98.9199 56.4152 97.1303 54.6037 94.4078 54.6037C91.1522 54.6037 89.4197 57.0064 89.4197 59.7904C89.4197 62.5936 91.2855 64.9772 94.8076 64.9772C96.6544 64.9772 98.1584 64.2526 99.0722 63.0512ZM94.3317 57.0445C95.4549 57.0445 95.9499 57.8454 95.988 58.4937H92.542C92.7705 57.5212 93.3607 57.0445 94.3317 57.0445ZM99.8982 63.1466C100.869 64.2526 102.088 64.9772 103.934 64.9772C105.781 64.9772 107.551 63.8712 107.589 61.6973C107.589 58.3412 103.154 58.837 103.154 57.5975C103.154 57.2733 103.401 57.0064 103.934 57.0064C104.62 57.0064 105.191 57.5212 105.648 58.0552L107.627 56.2817C106.904 55.3474 105.457 54.6037 103.934 54.6037C101.821 54.6037 100.279 55.9194 100.279 57.7501C100.279 61.1253 104.715 60.5913 104.715 61.9071C104.715 62.2885 104.448 62.5745 103.896 62.5745C103.04 62.5745 102.392 62.0025 101.878 61.335L99.8982 63.1466ZM114.906 60.8583C114.906 63.2229 115.992 64.7865 118.6 64.7865C119.495 64.7865 120.085 64.6721 120.599 64.4433V61.8308C120.313 61.9452 119.856 62.0406 119.152 62.0406C118.352 62.0406 117.953 61.6211 117.953 60.8583V57.6928H120.58V54.985H117.953V52.5824H114.906V54.985H113.117V57.6928H114.906V60.8583ZM131.2 63.0512L129.068 61.3541C128.63 61.9071 127.83 62.2694 126.917 62.2694C125.774 62.2694 124.937 61.9262 124.651 60.6295H130.857C130.953 60.2862 131.048 59.676 131.048 59.0277C131.048 56.4152 129.258 54.6037 126.536 54.6037C123.28 54.6037 121.548 57.0064 121.548 59.7904C121.548 62.5936 123.413 64.9772 126.936 64.9772C128.782 64.9772 130.286 64.2526 131.2 63.0512ZM126.46 57.0445C127.583 57.0445 128.078 57.8454 128.116 58.4937H124.67C124.898 57.5212 125.489 57.0445 126.46 57.0445ZM132.917 64.5958H135.944V58.7607C136.134 58.4365 136.858 57.7882 137.962 57.7882C138.457 57.7882 138.819 57.8454 139.142 57.9217V54.9278C138.914 54.8516 138.609 54.7944 138.267 54.7944C137.277 54.7944 136.534 55.2139 135.944 55.7669V54.985H132.917V64.5958ZM140.572 64.5958H143.599V58.7607C143.79 58.4365 144.513 57.7882 145.618 57.7882C146.113 57.7882 146.474 57.8454 146.798 57.9217V54.9278C146.569 54.8516 146.265 54.7944 145.922 54.7944C144.932 54.7944 144.19 55.2139 143.599 55.7669V54.985H140.572V64.5958ZM149.77 53.9363C150.779 53.9363 151.655 53.04 151.655 52.0103C151.655 50.9806 150.779 50.1034 149.77 50.1034C148.723 50.1034 147.847 50.9806 147.847 52.0103C147.847 53.04 148.723 53.9363 149.77 53.9363ZM148.228 64.5958H151.255V54.985H148.228V64.5958ZM154.207 60.8583C154.207 63.2229 155.292 64.7865 157.901 64.7865C158.795 64.7865 159.386 64.6721 159.9 64.4433V61.8308C159.614 61.9452 159.157 62.0406 158.453 62.0406C157.653 62.0406 157.253 61.6211 157.253 60.8583V57.6928H159.881V54.985H157.253V52.5824H154.207V54.985H152.417V57.6928H154.207V60.8583ZM166.16 54.6037C163 54.6037 160.848 56.8538 160.848 59.7904C160.848 62.7271 163 64.9772 166.16 64.9772C169.301 64.9772 171.453 62.7271 171.453 59.7904C171.453 56.8538 169.301 54.6037 166.16 54.6037ZM166.179 62.1359C164.923 62.1359 163.99 61.2206 163.99 59.7904C163.99 58.3603 164.923 57.445 166.179 57.445C167.398 57.445 168.33 58.3412 168.33 59.7904C168.33 61.2016 167.398 62.1359 166.179 62.1359ZM174.707 53.9363C175.716 53.9363 176.592 53.04 176.592 52.0103C176.592 50.9806 175.716 50.1034 174.707 50.1034C173.66 50.1034 172.784 50.9806 172.784 52.0103C172.784 53.04 173.66 53.9363 174.707 53.9363ZM173.165 64.5958H176.192V54.985H173.165V64.5958ZM178.478 64.5958H181.505V58.7607C181.695 58.4365 182.419 57.7882 183.523 57.7882C184.018 57.7882 184.38 57.8454 184.704 57.9217V54.9278C184.475 54.8516 184.17 54.7944 183.828 54.7944C182.838 54.7944 182.095 55.2139 181.505 55.7669V54.985H178.478V64.5958ZM194.936 63.0512L192.803 61.3541C192.365 61.9071 191.566 62.2694 190.652 62.2694C189.51 62.2694 188.672 61.9262 188.386 60.6295H194.593C194.688 60.2862 194.783 59.676 194.783 59.0277C194.783 56.4152 192.994 54.6037 190.271 54.6037C187.016 54.6037 185.283 57.0064 185.283 59.7904C185.283 62.5936 187.149 64.9772 190.671 64.9772C192.518 64.9772 194.022 64.2526 194.936 63.0512ZM190.195 57.0445C191.318 57.0445 191.813 57.8454 191.851 58.4937H188.405C188.634 57.5212 189.224 57.0445 190.195 57.0445ZM195.762 63.1466C196.733 64.2526 197.951 64.9772 199.798 64.9772C201.645 64.9772 203.415 63.8712 203.453 61.6973C203.453 58.3412 199.017 58.837 199.017 57.5975C199.017 57.2733 199.265 57.0064 199.798 57.0064C200.483 57.0064 201.054 57.5212 201.511 58.0552L203.491 56.2817C202.768 55.3474 201.321 54.6037 199.798 54.6037C197.685 54.6037 196.142 55.9194 196.142 57.7501C196.142 61.1253 200.578 60.5913 200.578 61.9071C200.578 62.2885 200.312 62.5745 199.76 62.5745C198.903 62.5745 198.256 62.0025 197.742 61.335L195.762 63.1466Z" fill="#62AA9C"/>
</svg>
